<svg width="41" height="41" viewBox="0 0 41 41" fill="none" xmlns="http://www.w3.org/2000/svg">
<path d="M14.4932 15.5508H25.2166" stroke="#898989" stroke-width="2" stroke-linecap="round"/>
<path d="M14.4932 20.7676H21.6421" stroke="#898989" stroke-width="2" stroke-linecap="round"/>
<path d="M9.57812 23.8122V12.9427C9.57812 11.5019 10.7461 10.334 12.1868 10.334H27.9694C29.4102 10.334 30.5781 11.5019 30.5781 12.9427V23.8122C30.5781 25.253 29.4102 26.4209 27.9694 26.4209H24.6837C23.8908 26.4209 23.141 26.7815 22.6459 27.4009L21.66 28.6343C20.9638 29.5054 19.6393 29.5054 18.943 28.6343L17.9571 27.4009C17.4621 26.7815 16.7122 26.4209 15.9194 26.4209H12.1868C10.7461 26.4209 9.57812 25.253 9.57812 23.8122Z" stroke="#898989" stroke-width="2"/>
</svg>
