<svg width="24" height="24" viewBox="0 0 24 24" fill="none" xmlns="http://www.w3.org/2000/svg">
<path d="M14 8C14 9.10457 13.1046 10 12 10C10.8954 10 10 9.10457 10 8C10 6.89543 10.8954 6 12 6C13.1046 6 14 6.89543 14 8Z" stroke="#898989" stroke-width="1.2"/>
<path d="M10 12L7.8906 13.4063C7.3342 13.7772 7 14.4017 7 15.0704V16.0667C7 16.5821 7.41787 17 7.93333 17H12" stroke="#898989" stroke-width="1.2" stroke-linecap="round" stroke-linejoin="round"/>
<path d="M16.5 8V12.5M16.5 12.5V14.7348C16.5 15.1798 16.1832 15.5678 15.7385 15.5538C15.0031 15.5306 14 15.2669 14 14C14 12 16.5 12.5 16.5 12.5Z" stroke="#898989" stroke-linecap="round" stroke-linejoin="round"/>
</svg>
