<svg width="41" height="41" viewBox="0 0 41 41" fill="none" xmlns="http://www.w3.org/2000/svg">
<path d="M21.9281 30.334C21.5281 30.334 21.2408 30.205 21.0661 29.947C20.8908 29.6883 20.8698 29.3673 21.0031 28.984L24.6531 19.309C24.7531 19.0423 24.9408 18.813 25.2161 18.621C25.4908 18.4297 25.7781 18.334 26.0781 18.334C26.3615 18.334 26.6448 18.4297 26.9281 18.621C27.2115 18.813 27.4031 19.0423 27.5031 19.309L31.1531 28.984C31.2865 29.3673 31.2658 29.6883 31.0911 29.947C30.9158 30.205 30.6198 30.334 30.2031 30.334C30.0198 30.334 29.8531 30.2757 29.7031 30.159C29.5531 30.0423 29.4448 29.9007 29.3781 29.734L28.5281 27.284H23.6781L22.8031 29.734C22.7365 29.9007 22.6198 30.0423 22.4531 30.159C22.2865 30.2757 22.1115 30.334 21.9281 30.334ZM24.2781 25.534H27.8781L26.1281 20.584H26.0281L24.2781 25.534ZM15.7281 16.884C15.9948 17.3673 16.2781 17.813 16.5781 18.221C16.8781 18.6297 17.2281 19.0507 17.6281 19.484C18.3615 18.684 18.9698 17.8633 19.4531 17.022C19.9365 16.18 20.3448 15.284 20.6781 14.334H10.5781C10.2948 14.334 10.0575 14.2383 9.86612 14.047C9.67412 13.855 9.57812 13.6173 9.57812 13.334C9.57812 13.0507 9.67412 12.813 9.86612 12.621C10.0575 12.4297 10.2948 12.334 10.5781 12.334H16.5781V11.334C16.5781 11.0507 16.6741 10.813 16.8661 10.621C17.0575 10.4297 17.2948 10.334 17.5781 10.334C17.8615 10.334 18.0991 10.4297 18.2911 10.621C18.4825 10.813 18.5781 11.0507 18.5781 11.334V12.334H24.5781C24.8615 12.334 25.0988 12.4297 25.2901 12.621C25.4821 12.813 25.5781 13.0507 25.5781 13.334C25.5781 13.6173 25.4821 13.855 25.2901 14.047C25.0988 14.2383 24.8615 14.334 24.5781 14.334H22.6781C22.3281 15.5173 21.8531 16.6673 21.2531 17.784C20.6531 18.9007 19.9115 19.9507 19.0281 20.934L21.4281 23.384L20.6781 25.434L17.5781 22.334L13.2781 26.634C13.0948 26.8173 12.8615 26.909 12.5781 26.909C12.2948 26.909 12.0615 26.8173 11.8781 26.634C11.6948 26.4507 11.6031 26.2173 11.6031 25.934C11.6031 25.6507 11.6948 25.4173 11.8781 25.234L16.2281 20.884C15.7781 20.3673 15.3615 19.8463 14.9781 19.321C14.5948 18.7963 14.2531 18.2423 13.9531 17.659C13.7698 17.309 13.7615 17.0007 13.9281 16.734C14.0948 16.4673 14.3865 16.334 14.8031 16.334C14.9698 16.334 15.1448 16.388 15.3281 16.496C15.5115 16.6047 15.6448 16.734 15.7281 16.884Z" fill="#898989"/>
</svg>
