<svg width="40" height="40" viewBox="0 0 40 40" fill="none" xmlns="http://www.w3.org/2000/svg">
<g clip-path="url(#clip0_11129_1909)">
<path d="M12.9278 23.7815C9.97957 22.3074 9.97957 18.0993 12.9278 16.6252L21.5713 12.304C22.0145 12.0824 22.5359 12.4043 22.5362 12.8997L22.5362 27.5071C22.5359 28.0024 22.0145 28.3244 21.5713 28.1028L12.9278 23.7815Z" stroke="#898989" stroke-width="2"/>
<path d="M26.8698 25.2034C27.6505 24.9904 28.3726 24.5179 28.9478 23.8296C29.7516 22.8678 30.2031 21.5635 30.2031 20.2034C30.2031 18.8433 29.7516 17.5389 28.9478 16.5772C28.3726 15.8888 27.6505 15.4163 26.8698 15.2034" stroke="#898989" stroke-width="1.66667" stroke-linecap="round"/>
<path d="M26.0366 19.6972C26.0366 19.5165 26.1885 19.3642 26.3555 19.4334C26.4566 19.4753 26.5485 19.5366 26.6259 19.614C26.7032 19.6914 26.7646 19.7833 26.8065 19.8844C26.8484 19.9855 26.8699 20.0939 26.8699 20.2033C26.8699 20.3127 26.8484 20.4211 26.8065 20.5222C26.7646 20.6233 26.7032 20.7152 26.6259 20.7925C26.5485 20.8699 26.4566 20.9313 26.3555 20.9732C26.1885 21.0424 26.0366 20.8901 26.0366 20.7094L26.0366 20.2033L26.0366 19.6972Z" fill="#898989" stroke="#898989" stroke-width="0.833333"/>
</g>
<defs>
<clipPath id="clip0_11129_1909">
<rect width="23.3333" height="23.3333" fill="white" transform="translate(8.53635 8.53687)"/>
</clipPath>
</defs>
</svg>
